# xmcd
#
# Track frame offsets:
#	225
#	12623
#	30768
#	45913
#	60972
#	74072
#	85876
#	102425
#	117895
#	131747
#	149977
#	161979
#	176255
#	189489
#	202368
#	215853
#
# Disc length: 3084 seconds
#
# Revision: 1
# Processed by: cddbd v1.5.1PL0 Copyright (c) Steve Scherf et al.
# Submitted via: audiograbber 1.83.01
#
DISCID=f60c0910
DTITLE=Various Artist - Die schönsten Deuteschen Country und Trucker Songs - Folge 6
DYEAR=1900
DGENRE=Country
TTITLE0=Jonny Hill - Erinnerungen an Tom Dooley
TTITLE1=Nancy Wood - König der Nacht
TTITLE2=Nashville Music Company - Nur mit dir
TTITLE3=Nils Tuxen - Mit dem Walkman
TTITLE4=Truckstop - Heiss wie Chilli
TTITLE5=Tex Haper - Country ist meine Welt
TTITLE6=Hank Haeberle jun. - I Fahr GTI
TTITLE7=Larry Schuba und Western Union - Auf der Autobahn
TTITLE8=Jonny Hill - Einmal noch nach Haus
TTITLE9=Anne Karin - Er war da als ich dich brauchte
TTITLE10=Ralf Paulsen - Hat ein Cowboy graue Schläfen
TTITLE11=Tennessee - Hallo liebe Hörer
TTITLE12=Tom Astor - Ich bin einer so wie du
TTITLE13=Trucks aus dem Zillertal - Strassenasphalt
TTITLE14=Black Bottom Skiffle Group - Nach Amerika
TTITLE15=Jonny Hill - Wieviel braucht man zum glücklich sein
EXTD=
EXTT0=Jonny Hill
EXTT1=Nancy Wood
EXTT2=Nashville Music Company
EXTT3=Nils Tuxen
EXTT4=Truckstop
EXTT5=Tex Haper
EXTT6=Hank Haeberle jun.
EXTT7=Larry Schuba und Western Union
EXTT8=Jonny Hill
EXTT9=Anne Karin
EXTT10=Ralf Paulsen
EXTT11=Tennessee
EXTT12=Tom Astor
EXTT13=Trucks aus dem Zillertal
EXTT14=Black Bottom Skiffle Group
EXTT15=Jonny Hill
PLAYORDER=
